<mxfile host="app.diagrams.net" agent="Mozilla/5.0 (Macintosh; Intel Mac OS X 10_13_6) AppleWebKit/537.36 (KHTML, like Gecko) Chrome/116.0.5845.2325 YaBrowser/23.9.0.2325 Yowser/2.5 Safari/537.36" version="26.0.16" pages="5">
  <diagram name="Задание 2" id="-H_mtQnk-PTXWXPvYvuk">
    <mxGraphModel dx="954" dy="1478" grid="1" gridSize="10" guides="1" tooltips="1" connect="1" arrows="1" fold="1" page="1" pageScale="1" pageWidth="1169" pageHeight="827" math="0" shadow="0">
      <root>
        <mxCell id="0" />
        <mxCell id="1" parent="0" />
        <mxCell id="zA23MoTUsTF4_91t8viU-2" value="shard1" style="shape=cylinder3;whiteSpace=wrap;html=1;boundedLbl=1;backgroundOutline=1;size=15;" parent="1" vertex="1">
          <mxGeometry x="290" y="240" width="60" height="80" as="geometry" />
        </mxCell>
        <mxCell id="zA23MoTUsTF4_91t8viU-3" value="pymongo-api" style="rounded=1;whiteSpace=wrap;html=1;" parent="1" vertex="1">
          <mxGeometry x="400" y="-30" width="120" height="60" as="geometry" />
        </mxCell>
        <mxCell id="zA23MoTUsTF4_91t8viU-4" style="edgeStyle=orthogonalEdgeStyle;rounded=0;orthogonalLoop=1;jettySize=auto;html=1;exitX=0;exitY=0.5;exitDx=0;exitDy=0;entryX=0.5;entryY=0;entryDx=0;entryDy=0;entryPerimeter=0;" parent="1" source="wMNTlfKfNzRItlIKltiS-4" target="zA23MoTUsTF4_91t8viU-2" edge="1">
          <mxGeometry relative="1" as="geometry">
            <mxPoint x="460" y="200" as="sourcePoint" />
            <mxPoint x="320" y="230" as="targetPoint" />
          </mxGeometry>
        </mxCell>
        <mxCell id="wMNTlfKfNzRItlIKltiS-4" value="mongo-router" style="rhombus;whiteSpace=wrap;html=1;" vertex="1" parent="1">
          <mxGeometry x="400" y="70" width="120" height="90" as="geometry" />
        </mxCell>
        <mxCell id="wMNTlfKfNzRItlIKltiS-5" value="shard2" style="shape=cylinder3;whiteSpace=wrap;html=1;boundedLbl=1;backgroundOutline=1;size=15;" vertex="1" parent="1">
          <mxGeometry x="570" y="240" width="60" height="80" as="geometry" />
        </mxCell>
        <mxCell id="wMNTlfKfNzRItlIKltiS-6" style="edgeStyle=orthogonalEdgeStyle;rounded=0;orthogonalLoop=1;jettySize=auto;html=1;exitX=1;exitY=0.5;exitDx=0;exitDy=0;" edge="1" parent="1" source="wMNTlfKfNzRItlIKltiS-4">
          <mxGeometry relative="1" as="geometry">
            <mxPoint x="570" y="200" as="sourcePoint" />
            <mxPoint x="600" y="240" as="targetPoint" />
          </mxGeometry>
        </mxCell>
        <mxCell id="wMNTlfKfNzRItlIKltiS-8" value="configSrv" style="rounded=1;whiteSpace=wrap;html=1;" vertex="1" parent="1">
          <mxGeometry x="400" y="200" width="120" height="60" as="geometry" />
        </mxCell>
        <mxCell id="wMNTlfKfNzRItlIKltiS-9" value="" style="endArrow=classic;html=1;rounded=0;exitX=0.5;exitY=1;exitDx=0;exitDy=0;entryX=0.5;entryY=0;entryDx=0;entryDy=0;" edge="1" parent="1" source="wMNTlfKfNzRItlIKltiS-4" target="wMNTlfKfNzRItlIKltiS-8">
          <mxGeometry width="50" height="50" relative="1" as="geometry">
            <mxPoint x="470" y="190" as="sourcePoint" />
            <mxPoint x="520" y="140" as="targetPoint" />
          </mxGeometry>
        </mxCell>
        <mxCell id="wMNTlfKfNzRItlIKltiS-10" value="" style="endArrow=classic;html=1;rounded=0;entryX=0;entryY=0.5;entryDx=0;entryDy=0;" edge="1" parent="1" target="wMNTlfKfNzRItlIKltiS-8">
          <mxGeometry width="50" height="50" relative="1" as="geometry">
            <mxPoint x="350" y="270" as="sourcePoint" />
            <mxPoint x="400" y="220" as="targetPoint" />
            <Array as="points">
              <mxPoint x="370" y="270" />
              <mxPoint x="370" y="230" />
            </Array>
          </mxGeometry>
        </mxCell>
        <mxCell id="wMNTlfKfNzRItlIKltiS-11" value="" style="endArrow=none;dashed=1;html=1;dashPattern=1 3;strokeWidth=2;rounded=0;entryX=-0.029;entryY=0.619;entryDx=0;entryDy=0;entryPerimeter=0;" edge="1" parent="1" target="wMNTlfKfNzRItlIKltiS-5">
          <mxGeometry width="50" height="50" relative="1" as="geometry">
            <mxPoint x="350" y="290" as="sourcePoint" />
            <mxPoint x="400" y="240" as="targetPoint" />
          </mxGeometry>
        </mxCell>
        <mxCell id="wMNTlfKfNzRItlIKltiS-12" value="" style="endArrow=classic;html=1;rounded=0;entryX=1;entryY=0.5;entryDx=0;entryDy=0;exitX=-0.001;exitY=0.395;exitDx=0;exitDy=0;exitPerimeter=0;" edge="1" parent="1" source="wMNTlfKfNzRItlIKltiS-5" target="wMNTlfKfNzRItlIKltiS-8">
          <mxGeometry width="50" height="50" relative="1" as="geometry">
            <mxPoint x="520" y="280" as="sourcePoint" />
            <mxPoint x="570" y="230" as="targetPoint" />
            <Array as="points">
              <mxPoint x="550" y="272" />
              <mxPoint x="550" y="230" />
            </Array>
          </mxGeometry>
        </mxCell>
        <mxCell id="wMNTlfKfNzRItlIKltiS-13" value="" style="endArrow=classic;html=1;rounded=0;" edge="1" parent="1" target="wMNTlfKfNzRItlIKltiS-4">
          <mxGeometry width="50" height="50" relative="1" as="geometry">
            <mxPoint x="460" y="30" as="sourcePoint" />
            <mxPoint x="510" y="-20" as="targetPoint" />
          </mxGeometry>
        </mxCell>
      </root>
    </mxGraphModel>
  </diagram>
  <diagram id="g8MGapnhHfuEhl8JQ7FW" name="Задание 3">
    <mxGraphModel dx="954" dy="651" grid="1" gridSize="10" guides="1" tooltips="1" connect="1" arrows="1" fold="1" page="1" pageScale="1" pageWidth="827" pageHeight="1169" math="0" shadow="0">
      <root>
        <mxCell id="0" />
        <mxCell id="1" parent="0" />
        <mxCell id="P3i2-cvloim_imuj-xMK-15" value="" style="rounded=1;whiteSpace=wrap;html=1;" vertex="1" parent="1">
          <mxGeometry x="130" y="330" width="210" height="140" as="geometry" />
        </mxCell>
        <mxCell id="P3i2-cvloim_imuj-xMK-1" value="shard1" style="shape=cylinder3;whiteSpace=wrap;html=1;boundedLbl=1;backgroundOutline=1;size=15;" vertex="1" parent="1">
          <mxGeometry x="205" y="330" width="60" height="80" as="geometry" />
        </mxCell>
        <mxCell id="P3i2-cvloim_imuj-xMK-2" value="pymongo-api" style="rounded=1;whiteSpace=wrap;html=1;" vertex="1" parent="1">
          <mxGeometry x="390" y="60" width="120" height="60" as="geometry" />
        </mxCell>
        <mxCell id="P3i2-cvloim_imuj-xMK-3" style="edgeStyle=orthogonalEdgeStyle;rounded=0;orthogonalLoop=1;jettySize=auto;html=1;exitX=0;exitY=0.5;exitDx=0;exitDy=0;entryX=0.5;entryY=0;entryDx=0;entryDy=0;" edge="1" parent="1" source="P3i2-cvloim_imuj-xMK-4" target="P3i2-cvloim_imuj-xMK-15">
          <mxGeometry relative="1" as="geometry">
            <mxPoint x="450" y="290" as="sourcePoint" />
            <mxPoint x="310" y="320" as="targetPoint" />
          </mxGeometry>
        </mxCell>
        <mxCell id="P3i2-cvloim_imuj-xMK-4" value="mongo-router" style="rhombus;whiteSpace=wrap;html=1;" vertex="1" parent="1">
          <mxGeometry x="390" y="160" width="120" height="90" as="geometry" />
        </mxCell>
        <mxCell id="P3i2-cvloim_imuj-xMK-6" style="edgeStyle=orthogonalEdgeStyle;rounded=0;orthogonalLoop=1;jettySize=auto;html=1;exitX=1;exitY=0.5;exitDx=0;exitDy=0;entryX=0.5;entryY=0;entryDx=0;entryDy=0;" edge="1" parent="1" source="P3i2-cvloim_imuj-xMK-4" target="P3i2-cvloim_imuj-xMK-16">
          <mxGeometry relative="1" as="geometry">
            <mxPoint x="560" y="290" as="sourcePoint" />
            <mxPoint x="590" y="330" as="targetPoint" />
          </mxGeometry>
        </mxCell>
        <mxCell id="P3i2-cvloim_imuj-xMK-7" value="configSrv" style="rounded=1;whiteSpace=wrap;html=1;" vertex="1" parent="1">
          <mxGeometry x="390" y="290" width="120" height="60" as="geometry" />
        </mxCell>
        <mxCell id="P3i2-cvloim_imuj-xMK-8" value="" style="endArrow=classic;html=1;rounded=0;exitX=0.5;exitY=1;exitDx=0;exitDy=0;entryX=0.5;entryY=0;entryDx=0;entryDy=0;" edge="1" parent="1" source="P3i2-cvloim_imuj-xMK-4" target="P3i2-cvloim_imuj-xMK-7">
          <mxGeometry width="50" height="50" relative="1" as="geometry">
            <mxPoint x="460" y="280" as="sourcePoint" />
            <mxPoint x="510" y="230" as="targetPoint" />
          </mxGeometry>
        </mxCell>
        <mxCell id="P3i2-cvloim_imuj-xMK-9" value="" style="endArrow=classic;html=1;rounded=0;entryX=0;entryY=0.5;entryDx=0;entryDy=0;exitX=0.998;exitY=0.476;exitDx=0;exitDy=0;exitPerimeter=0;" edge="1" parent="1" target="P3i2-cvloim_imuj-xMK-7" source="P3i2-cvloim_imuj-xMK-15">
          <mxGeometry width="50" height="50" relative="1" as="geometry">
            <mxPoint x="340" y="360" as="sourcePoint" />
            <mxPoint x="390" y="310" as="targetPoint" />
            <Array as="points">
              <mxPoint x="360" y="397" />
              <mxPoint x="360" y="320" />
            </Array>
          </mxGeometry>
        </mxCell>
        <mxCell id="P3i2-cvloim_imuj-xMK-11" value="" style="endArrow=classic;html=1;rounded=0;entryX=1;entryY=0.5;entryDx=0;entryDy=0;exitX=-0.004;exitY=0.438;exitDx=0;exitDy=0;exitPerimeter=0;" edge="1" parent="1" source="P3i2-cvloim_imuj-xMK-16" target="P3i2-cvloim_imuj-xMK-7">
          <mxGeometry width="50" height="50" relative="1" as="geometry">
            <mxPoint x="559.9399999999999" y="361.5999999999999" as="sourcePoint" />
            <mxPoint x="560" y="320" as="targetPoint" />
            <Array as="points">
              <mxPoint x="540" y="396" />
              <mxPoint x="540" y="320" />
            </Array>
          </mxGeometry>
        </mxCell>
        <mxCell id="P3i2-cvloim_imuj-xMK-12" value="" style="endArrow=classic;html=1;rounded=0;" edge="1" parent="1" target="P3i2-cvloim_imuj-xMK-4">
          <mxGeometry width="50" height="50" relative="1" as="geometry">
            <mxPoint x="450" y="120" as="sourcePoint" />
            <mxPoint x="500" y="70" as="targetPoint" />
          </mxGeometry>
        </mxCell>
        <mxCell id="P3i2-cvloim_imuj-xMK-13" value="shard1_2" style="shape=cylinder3;whiteSpace=wrap;html=1;boundedLbl=1;backgroundOutline=1;size=15;" vertex="1" parent="1">
          <mxGeometry x="145" y="380" width="60" height="80" as="geometry" />
        </mxCell>
        <mxCell id="P3i2-cvloim_imuj-xMK-14" value="shard1_3" style="shape=cylinder3;whiteSpace=wrap;html=1;boundedLbl=1;backgroundOutline=1;size=15;" vertex="1" parent="1">
          <mxGeometry x="265" y="380" width="60" height="80" as="geometry" />
        </mxCell>
        <mxCell id="P3i2-cvloim_imuj-xMK-16" value="" style="rounded=1;whiteSpace=wrap;html=1;" vertex="1" parent="1">
          <mxGeometry x="560" y="330" width="210" height="150" as="geometry" />
        </mxCell>
        <mxCell id="P3i2-cvloim_imuj-xMK-17" value="shard2" style="shape=cylinder3;whiteSpace=wrap;html=1;boundedLbl=1;backgroundOutline=1;size=15;" vertex="1" parent="1">
          <mxGeometry x="635" y="340" width="60" height="80" as="geometry" />
        </mxCell>
        <mxCell id="P3i2-cvloim_imuj-xMK-18" value="shard2_2" style="shape=cylinder3;whiteSpace=wrap;html=1;boundedLbl=1;backgroundOutline=1;size=15;" vertex="1" parent="1">
          <mxGeometry x="575" y="390" width="60" height="80" as="geometry" />
        </mxCell>
        <mxCell id="P3i2-cvloim_imuj-xMK-19" value="shard2_3" style="shape=cylinder3;whiteSpace=wrap;html=1;boundedLbl=1;backgroundOutline=1;size=15;" vertex="1" parent="1">
          <mxGeometry x="695" y="390" width="60" height="80" as="geometry" />
        </mxCell>
      </root>
    </mxGraphModel>
  </diagram>
  <diagram id="ScRZC1xb8i1tYUi4lybS" name="Задание 4">
    <mxGraphModel dx="954" dy="651" grid="1" gridSize="10" guides="1" tooltips="1" connect="1" arrows="1" fold="1" page="1" pageScale="1" pageWidth="827" pageHeight="1169" math="0" shadow="0">
      <root>
        <mxCell id="0" />
        <mxCell id="1" parent="0" />
        <mxCell id="najtnWsb7x3hl6VI_MXc-18" value="" style="rounded=1;whiteSpace=wrap;html=1;" vertex="1" parent="1">
          <mxGeometry x="160" y="420" width="210" height="140" as="geometry" />
        </mxCell>
        <mxCell id="najtnWsb7x3hl6VI_MXc-19" value="shard1" style="shape=cylinder3;whiteSpace=wrap;html=1;boundedLbl=1;backgroundOutline=1;size=15;" vertex="1" parent="1">
          <mxGeometry x="235" y="420" width="60" height="80" as="geometry" />
        </mxCell>
        <mxCell id="najtnWsb7x3hl6VI_MXc-20" value="pymongo-api" style="rounded=1;whiteSpace=wrap;html=1;" vertex="1" parent="1">
          <mxGeometry x="420" y="150" width="120" height="60" as="geometry" />
        </mxCell>
        <mxCell id="najtnWsb7x3hl6VI_MXc-21" style="edgeStyle=orthogonalEdgeStyle;rounded=0;orthogonalLoop=1;jettySize=auto;html=1;exitX=0;exitY=0.5;exitDx=0;exitDy=0;entryX=0.5;entryY=0;entryDx=0;entryDy=0;" edge="1" parent="1" source="najtnWsb7x3hl6VI_MXc-22" target="najtnWsb7x3hl6VI_MXc-18">
          <mxGeometry relative="1" as="geometry">
            <mxPoint x="480" y="380" as="sourcePoint" />
            <mxPoint x="340" y="410" as="targetPoint" />
          </mxGeometry>
        </mxCell>
        <mxCell id="najtnWsb7x3hl6VI_MXc-22" value="mongo-router" style="rhombus;whiteSpace=wrap;html=1;" vertex="1" parent="1">
          <mxGeometry x="420" y="250" width="120" height="90" as="geometry" />
        </mxCell>
        <mxCell id="najtnWsb7x3hl6VI_MXc-23" style="edgeStyle=orthogonalEdgeStyle;rounded=0;orthogonalLoop=1;jettySize=auto;html=1;exitX=1;exitY=0.5;exitDx=0;exitDy=0;entryX=0.5;entryY=0;entryDx=0;entryDy=0;" edge="1" parent="1" source="najtnWsb7x3hl6VI_MXc-22" target="najtnWsb7x3hl6VI_MXc-31">
          <mxGeometry relative="1" as="geometry">
            <mxPoint x="590" y="380" as="sourcePoint" />
            <mxPoint x="620" y="420" as="targetPoint" />
          </mxGeometry>
        </mxCell>
        <mxCell id="najtnWsb7x3hl6VI_MXc-24" value="configSrv" style="rounded=1;whiteSpace=wrap;html=1;" vertex="1" parent="1">
          <mxGeometry x="420" y="380" width="120" height="60" as="geometry" />
        </mxCell>
        <mxCell id="najtnWsb7x3hl6VI_MXc-25" value="" style="endArrow=classic;html=1;rounded=0;exitX=0.5;exitY=1;exitDx=0;exitDy=0;entryX=0.5;entryY=0;entryDx=0;entryDy=0;" edge="1" parent="1" source="najtnWsb7x3hl6VI_MXc-22" target="najtnWsb7x3hl6VI_MXc-24">
          <mxGeometry width="50" height="50" relative="1" as="geometry">
            <mxPoint x="490" y="370" as="sourcePoint" />
            <mxPoint x="540" y="320" as="targetPoint" />
          </mxGeometry>
        </mxCell>
        <mxCell id="najtnWsb7x3hl6VI_MXc-26" value="" style="endArrow=classic;html=1;rounded=0;entryX=0;entryY=0.5;entryDx=0;entryDy=0;exitX=0.998;exitY=0.476;exitDx=0;exitDy=0;exitPerimeter=0;" edge="1" parent="1" source="najtnWsb7x3hl6VI_MXc-18" target="najtnWsb7x3hl6VI_MXc-24">
          <mxGeometry width="50" height="50" relative="1" as="geometry">
            <mxPoint x="370" y="450" as="sourcePoint" />
            <mxPoint x="420" y="400" as="targetPoint" />
            <Array as="points">
              <mxPoint x="390" y="487" />
              <mxPoint x="390" y="410" />
            </Array>
          </mxGeometry>
        </mxCell>
        <mxCell id="najtnWsb7x3hl6VI_MXc-27" value="" style="endArrow=classic;html=1;rounded=0;entryX=1;entryY=0.5;entryDx=0;entryDy=0;exitX=-0.004;exitY=0.438;exitDx=0;exitDy=0;exitPerimeter=0;" edge="1" parent="1" source="najtnWsb7x3hl6VI_MXc-31" target="najtnWsb7x3hl6VI_MXc-24">
          <mxGeometry width="50" height="50" relative="1" as="geometry">
            <mxPoint x="589.9399999999999" y="451.5999999999999" as="sourcePoint" />
            <mxPoint x="590" y="410" as="targetPoint" />
            <Array as="points">
              <mxPoint x="570" y="486" />
              <mxPoint x="570" y="410" />
            </Array>
          </mxGeometry>
        </mxCell>
        <mxCell id="najtnWsb7x3hl6VI_MXc-28" value="" style="endArrow=classic;html=1;rounded=0;" edge="1" parent="1" target="najtnWsb7x3hl6VI_MXc-22">
          <mxGeometry width="50" height="50" relative="1" as="geometry">
            <mxPoint x="480" y="210" as="sourcePoint" />
            <mxPoint x="530" y="160" as="targetPoint" />
          </mxGeometry>
        </mxCell>
        <mxCell id="najtnWsb7x3hl6VI_MXc-29" value="shard1_2" style="shape=cylinder3;whiteSpace=wrap;html=1;boundedLbl=1;backgroundOutline=1;size=15;" vertex="1" parent="1">
          <mxGeometry x="175" y="470" width="60" height="80" as="geometry" />
        </mxCell>
        <mxCell id="najtnWsb7x3hl6VI_MXc-30" value="shard1_3" style="shape=cylinder3;whiteSpace=wrap;html=1;boundedLbl=1;backgroundOutline=1;size=15;" vertex="1" parent="1">
          <mxGeometry x="295" y="470" width="60" height="80" as="geometry" />
        </mxCell>
        <mxCell id="najtnWsb7x3hl6VI_MXc-31" value="" style="rounded=1;whiteSpace=wrap;html=1;" vertex="1" parent="1">
          <mxGeometry x="590" y="420" width="210" height="150" as="geometry" />
        </mxCell>
        <mxCell id="najtnWsb7x3hl6VI_MXc-32" value="shard2" style="shape=cylinder3;whiteSpace=wrap;html=1;boundedLbl=1;backgroundOutline=1;size=15;" vertex="1" parent="1">
          <mxGeometry x="665" y="430" width="60" height="80" as="geometry" />
        </mxCell>
        <mxCell id="najtnWsb7x3hl6VI_MXc-33" value="shard2_2" style="shape=cylinder3;whiteSpace=wrap;html=1;boundedLbl=1;backgroundOutline=1;size=15;" vertex="1" parent="1">
          <mxGeometry x="605" y="480" width="60" height="80" as="geometry" />
        </mxCell>
        <mxCell id="najtnWsb7x3hl6VI_MXc-34" value="shard2_3" style="shape=cylinder3;whiteSpace=wrap;html=1;boundedLbl=1;backgroundOutline=1;size=15;" vertex="1" parent="1">
          <mxGeometry x="725" y="480" width="60" height="80" as="geometry" />
        </mxCell>
        <mxCell id="najtnWsb7x3hl6VI_MXc-35" value="redis" style="rounded=1;whiteSpace=wrap;html=1;" vertex="1" parent="1">
          <mxGeometry x="600" y="200" width="120" height="60" as="geometry" />
        </mxCell>
        <mxCell id="najtnWsb7x3hl6VI_MXc-36" value="" style="endArrow=classic;html=1;rounded=0;entryX=0.5;entryY=0;entryDx=0;entryDy=0;" edge="1" parent="1" target="najtnWsb7x3hl6VI_MXc-35">
          <mxGeometry width="50" height="50" relative="1" as="geometry">
            <mxPoint x="540" y="180" as="sourcePoint" />
            <mxPoint x="590" y="130" as="targetPoint" />
            <Array as="points">
              <mxPoint x="660" y="180" />
            </Array>
          </mxGeometry>
        </mxCell>
      </root>
    </mxGraphModel>
  </diagram>
  <diagram id="5z0fbqXUKsoLHzWocqp3" name="Задание 5">
    <mxGraphModel dx="954" dy="1820" grid="1" gridSize="10" guides="1" tooltips="1" connect="1" arrows="1" fold="1" page="1" pageScale="1" pageWidth="827" pageHeight="1169" math="0" shadow="0">
      <root>
        <mxCell id="0" />
        <mxCell id="1" parent="0" />
        <mxCell id="M5_copgCiuHlVBaVW6s2-1" value="" style="rounded=1;whiteSpace=wrap;html=1;" vertex="1" parent="1">
          <mxGeometry x="270" y="530" width="210" height="140" as="geometry" />
        </mxCell>
        <mxCell id="M5_copgCiuHlVBaVW6s2-2" value="shard1" style="shape=cylinder3;whiteSpace=wrap;html=1;boundedLbl=1;backgroundOutline=1;size=15;" vertex="1" parent="1">
          <mxGeometry x="345" y="530" width="60" height="80" as="geometry" />
        </mxCell>
        <mxCell id="M5_copgCiuHlVBaVW6s2-4" style="edgeStyle=orthogonalEdgeStyle;rounded=0;orthogonalLoop=1;jettySize=auto;html=1;exitX=0;exitY=0.5;exitDx=0;exitDy=0;entryX=0.5;entryY=0;entryDx=0;entryDy=0;" edge="1" parent="1" source="M5_copgCiuHlVBaVW6s2-5" target="M5_copgCiuHlVBaVW6s2-1">
          <mxGeometry relative="1" as="geometry">
            <mxPoint x="590" y="490" as="sourcePoint" />
            <mxPoint x="450" y="520" as="targetPoint" />
          </mxGeometry>
        </mxCell>
        <mxCell id="M5_copgCiuHlVBaVW6s2-5" value="mongo-router" style="rhombus;whiteSpace=wrap;html=1;" vertex="1" parent="1">
          <mxGeometry x="530" y="360" width="120" height="90" as="geometry" />
        </mxCell>
        <mxCell id="M5_copgCiuHlVBaVW6s2-6" style="edgeStyle=orthogonalEdgeStyle;rounded=0;orthogonalLoop=1;jettySize=auto;html=1;exitX=1;exitY=0.5;exitDx=0;exitDy=0;entryX=0.5;entryY=0;entryDx=0;entryDy=0;" edge="1" parent="1" source="M5_copgCiuHlVBaVW6s2-5" target="M5_copgCiuHlVBaVW6s2-14">
          <mxGeometry relative="1" as="geometry">
            <mxPoint x="700" y="490" as="sourcePoint" />
            <mxPoint x="730" y="530" as="targetPoint" />
          </mxGeometry>
        </mxCell>
        <mxCell id="M5_copgCiuHlVBaVW6s2-7" value="configSrv" style="rounded=1;whiteSpace=wrap;html=1;" vertex="1" parent="1">
          <mxGeometry x="530" y="490" width="120" height="60" as="geometry" />
        </mxCell>
        <mxCell id="M5_copgCiuHlVBaVW6s2-8" value="" style="endArrow=classic;html=1;rounded=0;exitX=0.5;exitY=1;exitDx=0;exitDy=0;entryX=0.5;entryY=0;entryDx=0;entryDy=0;" edge="1" parent="1" source="M5_copgCiuHlVBaVW6s2-5" target="M5_copgCiuHlVBaVW6s2-7">
          <mxGeometry width="50" height="50" relative="1" as="geometry">
            <mxPoint x="600" y="480" as="sourcePoint" />
            <mxPoint x="650" y="430" as="targetPoint" />
          </mxGeometry>
        </mxCell>
        <mxCell id="M5_copgCiuHlVBaVW6s2-9" value="" style="endArrow=classic;html=1;rounded=0;entryX=0;entryY=0.5;entryDx=0;entryDy=0;exitX=0.998;exitY=0.476;exitDx=0;exitDy=0;exitPerimeter=0;" edge="1" parent="1" source="M5_copgCiuHlVBaVW6s2-1" target="M5_copgCiuHlVBaVW6s2-7">
          <mxGeometry width="50" height="50" relative="1" as="geometry">
            <mxPoint x="480" y="560" as="sourcePoint" />
            <mxPoint x="530" y="510" as="targetPoint" />
            <Array as="points">
              <mxPoint x="500" y="597" />
              <mxPoint x="500" y="520" />
            </Array>
          </mxGeometry>
        </mxCell>
        <mxCell id="M5_copgCiuHlVBaVW6s2-10" value="" style="endArrow=classic;html=1;rounded=0;entryX=1;entryY=0.5;entryDx=0;entryDy=0;exitX=-0.004;exitY=0.438;exitDx=0;exitDy=0;exitPerimeter=0;" edge="1" parent="1" source="M5_copgCiuHlVBaVW6s2-14" target="M5_copgCiuHlVBaVW6s2-7">
          <mxGeometry width="50" height="50" relative="1" as="geometry">
            <mxPoint x="699.9399999999999" y="561.5999999999999" as="sourcePoint" />
            <mxPoint x="700" y="520" as="targetPoint" />
            <Array as="points">
              <mxPoint x="680" y="596" />
              <mxPoint x="680" y="520" />
            </Array>
          </mxGeometry>
        </mxCell>
        <mxCell id="M5_copgCiuHlVBaVW6s2-11" value="" style="endArrow=classic;html=1;rounded=0;exitX=0.5;exitY=1;exitDx=0;exitDy=0;entryX=0;entryY=0;entryDx=0;entryDy=0;" edge="1" parent="1" target="M5_copgCiuHlVBaVW6s2-5" source="M5_copgCiuHlVBaVW6s2-27">
          <mxGeometry width="50" height="50" relative="1" as="geometry">
            <mxPoint x="590" y="320" as="sourcePoint" />
            <mxPoint x="640" y="270" as="targetPoint" />
            <Array as="points">
              <mxPoint x="473" y="383" />
            </Array>
          </mxGeometry>
        </mxCell>
        <mxCell id="M5_copgCiuHlVBaVW6s2-12" value="shard1_2" style="shape=cylinder3;whiteSpace=wrap;html=1;boundedLbl=1;backgroundOutline=1;size=15;" vertex="1" parent="1">
          <mxGeometry x="285" y="580" width="60" height="80" as="geometry" />
        </mxCell>
        <mxCell id="M5_copgCiuHlVBaVW6s2-13" value="shard1_3" style="shape=cylinder3;whiteSpace=wrap;html=1;boundedLbl=1;backgroundOutline=1;size=15;" vertex="1" parent="1">
          <mxGeometry x="405" y="580" width="60" height="80" as="geometry" />
        </mxCell>
        <mxCell id="M5_copgCiuHlVBaVW6s2-14" value="" style="rounded=1;whiteSpace=wrap;html=1;" vertex="1" parent="1">
          <mxGeometry x="700" y="530" width="210" height="150" as="geometry" />
        </mxCell>
        <mxCell id="M5_copgCiuHlVBaVW6s2-15" value="shard2" style="shape=cylinder3;whiteSpace=wrap;html=1;boundedLbl=1;backgroundOutline=1;size=15;" vertex="1" parent="1">
          <mxGeometry x="775" y="540" width="60" height="80" as="geometry" />
        </mxCell>
        <mxCell id="M5_copgCiuHlVBaVW6s2-16" value="shard2_2" style="shape=cylinder3;whiteSpace=wrap;html=1;boundedLbl=1;backgroundOutline=1;size=15;" vertex="1" parent="1">
          <mxGeometry x="715" y="590" width="60" height="80" as="geometry" />
        </mxCell>
        <mxCell id="M5_copgCiuHlVBaVW6s2-17" value="shard2_3" style="shape=cylinder3;whiteSpace=wrap;html=1;boundedLbl=1;backgroundOutline=1;size=15;" vertex="1" parent="1">
          <mxGeometry x="835" y="590" width="60" height="80" as="geometry" />
        </mxCell>
        <mxCell id="M5_copgCiuHlVBaVW6s2-20" value="" style="edgeStyle=orthogonalEdgeStyle;rounded=0;orthogonalLoop=1;jettySize=auto;html=1;entryX=0.568;entryY=0.01;entryDx=0;entryDy=0;exitX=0;exitY=0.5;exitDx=0;exitDy=0;entryPerimeter=0;" edge="1" parent="1" source="M5_copgCiuHlVBaVW6s2-23" target="M5_copgCiuHlVBaVW6s2-33">
          <mxGeometry relative="1" as="geometry">
            <mxPoint x="571" y="210" as="sourcePoint" />
            <mxPoint x="611.1099999999999" y="190.72000000000003" as="targetPoint" />
          </mxGeometry>
        </mxCell>
        <mxCell id="M5_copgCiuHlVBaVW6s2-21" style="edgeStyle=orthogonalEdgeStyle;rounded=0;orthogonalLoop=1;jettySize=auto;html=1;entryX=0.5;entryY=0;entryDx=0;entryDy=0;" edge="1" parent="1" source="M5_copgCiuHlVBaVW6s2-37" target="M5_copgCiuHlVBaVW6s2-23">
          <mxGeometry relative="1" as="geometry">
            <mxPoint x="731.25" y="110" as="targetPoint" />
          </mxGeometry>
        </mxCell>
        <mxCell id="M5_copgCiuHlVBaVW6s2-22" value="" style="group" vertex="1" connectable="0" parent="1">
          <mxGeometry x="670" y="110" width="125" height="58" as="geometry" />
        </mxCell>
        <mxCell id="M5_copgCiuHlVBaVW6s2-23" value="&lt;div&gt;pymongo_api&lt;br&gt;&lt;/div&gt;" style="rounded=1;whiteSpace=wrap;html=1;" vertex="1" parent="M5_copgCiuHlVBaVW6s2-22">
          <mxGeometry y="8" width="125" height="50" as="geometry" />
        </mxCell>
        <mxCell id="M5_copgCiuHlVBaVW6s2-53" value="" style="endArrow=classic;html=1;rounded=0;entryX=1;entryY=0;entryDx=0;entryDy=0;" edge="1" parent="M5_copgCiuHlVBaVW6s2-22" target="M5_copgCiuHlVBaVW6s2-5">
          <mxGeometry width="50" height="50" relative="1" as="geometry">
            <mxPoint x="60" y="60" as="sourcePoint" />
            <mxPoint x="110" y="10" as="targetPoint" />
            <Array as="points">
              <mxPoint x="60" y="273" />
            </Array>
          </mxGeometry>
        </mxCell>
        <mxCell id="M5_copgCiuHlVBaVW6s2-26" value="" style="group" vertex="1" connectable="0" parent="1">
          <mxGeometry x="410" y="110" width="125" height="58" as="geometry" />
        </mxCell>
        <mxCell id="M5_copgCiuHlVBaVW6s2-27" value="&lt;div&gt;pymongo_api_2&lt;br&gt;&lt;/div&gt;" style="rounded=1;whiteSpace=wrap;html=1;" vertex="1" parent="M5_copgCiuHlVBaVW6s2-26">
          <mxGeometry y="8" width="125" height="50" as="geometry" />
        </mxCell>
        <mxCell id="M5_copgCiuHlVBaVW6s2-67" value="" style="endArrow=classic;html=1;rounded=0;entryX=1;entryY=0.5;entryDx=0;entryDy=0;" edge="1" parent="M5_copgCiuHlVBaVW6s2-26" target="M5_copgCiuHlVBaVW6s2-55">
          <mxGeometry width="50" height="50" relative="1" as="geometry">
            <mxPoint y="50" as="sourcePoint" />
            <mxPoint x="50" as="targetPoint" />
            <Array as="points">
              <mxPoint x="-240" y="50" />
              <mxPoint x="-240" y="-530" />
              <mxPoint x="400" y="-530" />
              <mxPoint x="400" y="-405" />
            </Array>
          </mxGeometry>
        </mxCell>
        <mxCell id="M5_copgCiuHlVBaVW6s2-30" style="edgeStyle=orthogonalEdgeStyle;rounded=0;orthogonalLoop=1;jettySize=auto;html=1;entryX=0.432;entryY=0.05;entryDx=0;entryDy=0;entryPerimeter=0;" edge="1" parent="1" source="M5_copgCiuHlVBaVW6s2-27" target="M5_copgCiuHlVBaVW6s2-33">
          <mxGeometry relative="1" as="geometry">
            <mxPoint x="593.75" y="190" as="targetPoint" />
          </mxGeometry>
        </mxCell>
        <mxCell id="M5_copgCiuHlVBaVW6s2-31" style="edgeStyle=orthogonalEdgeStyle;rounded=0;orthogonalLoop=1;jettySize=auto;html=1;entryX=0.5;entryY=0;entryDx=0;entryDy=0;" edge="1" parent="1" source="M5_copgCiuHlVBaVW6s2-37" target="M5_copgCiuHlVBaVW6s2-27">
          <mxGeometry relative="1" as="geometry">
            <mxPoint x="471.25" y="110" as="targetPoint" />
          </mxGeometry>
        </mxCell>
        <mxCell id="M5_copgCiuHlVBaVW6s2-32" value="" style="group" vertex="1" connectable="0" parent="1">
          <mxGeometry x="540" y="190" width="125" height="58.5" as="geometry" />
        </mxCell>
        <mxCell id="M5_copgCiuHlVBaVW6s2-33" value="&lt;div&gt;redis&lt;/div&gt;" style="rounded=1;whiteSpace=wrap;html=1;" vertex="1" parent="M5_copgCiuHlVBaVW6s2-32">
          <mxGeometry y="8.5" width="125" height="50" as="geometry" />
        </mxCell>
        <mxCell id="M5_copgCiuHlVBaVW6s2-36" value="" style="group" vertex="1" connectable="0" parent="1">
          <mxGeometry x="538.75" y="32" width="125" height="58" as="geometry" />
        </mxCell>
        <mxCell id="M5_copgCiuHlVBaVW6s2-37" value="&lt;div&gt;apisix&lt;br&gt;&lt;/div&gt;" style="rounded=1;whiteSpace=wrap;html=1;movable=1;resizable=1;rotatable=1;deletable=1;editable=1;locked=0;connectable=1;" vertex="1" parent="M5_copgCiuHlVBaVW6s2-36">
          <mxGeometry y="8" width="125" height="50" as="geometry" />
        </mxCell>
        <mxCell id="M5_copgCiuHlVBaVW6s2-40" value="" style="group" vertex="1" connectable="0" parent="1">
          <mxGeometry x="790" y="27" width="145" height="50" as="geometry" />
        </mxCell>
        <mxCell id="M5_copgCiuHlVBaVW6s2-41" value="&lt;div&gt;consul&lt;br&gt;&lt;/div&gt;" style="rounded=1;whiteSpace=wrap;html=1;movable=1;resizable=1;rotatable=1;deletable=1;editable=1;locked=0;connectable=1;" vertex="1" parent="M5_copgCiuHlVBaVW6s2-40">
          <mxGeometry x="20" width="125" height="50" as="geometry" />
        </mxCell>
        <mxCell id="M5_copgCiuHlVBaVW6s2-44" style="edgeStyle=orthogonalEdgeStyle;rounded=0;orthogonalLoop=1;jettySize=auto;html=1;exitX=1;exitY=0.25;exitDx=0;exitDy=0;entryX=0;entryY=0.5;entryDx=0;entryDy=0;" edge="1" parent="1" source="M5_copgCiuHlVBaVW6s2-37" target="M5_copgCiuHlVBaVW6s2-41">
          <mxGeometry relative="1" as="geometry">
            <mxPoint x="790" y="52" as="targetPoint" />
          </mxGeometry>
        </mxCell>
        <mxCell id="M5_copgCiuHlVBaVW6s2-45" value="" style="group" vertex="1" connectable="0" parent="1">
          <mxGeometry x="250" y="27" width="145" height="50" as="geometry" />
        </mxCell>
        <mxCell id="M5_copgCiuHlVBaVW6s2-46" value="" style="group" vertex="1" connectable="0" parent="M5_copgCiuHlVBaVW6s2-45">
          <mxGeometry width="125" height="50" as="geometry" />
        </mxCell>
        <mxCell id="M5_copgCiuHlVBaVW6s2-47" value="&lt;div&gt;etcd&lt;br&gt;&lt;/div&gt;" style="rounded=1;whiteSpace=wrap;html=1;movable=1;resizable=1;rotatable=1;deletable=1;editable=1;locked=0;connectable=1;" vertex="1" parent="M5_copgCiuHlVBaVW6s2-46">
          <mxGeometry width="125" height="50" as="geometry" />
        </mxCell>
        <mxCell id="M5_copgCiuHlVBaVW6s2-50" style="edgeStyle=orthogonalEdgeStyle;rounded=0;orthogonalLoop=1;jettySize=auto;html=1;exitX=0;exitY=0.25;exitDx=0;exitDy=0;entryX=1;entryY=0.5;entryDx=0;entryDy=0;" edge="1" parent="1" source="M5_copgCiuHlVBaVW6s2-37" target="M5_copgCiuHlVBaVW6s2-47">
          <mxGeometry relative="1" as="geometry">
            <mxPoint x="395" y="52" as="targetPoint" />
          </mxGeometry>
        </mxCell>
        <mxCell id="M5_copgCiuHlVBaVW6s2-51" style="edgeStyle=orthogonalEdgeStyle;rounded=0;orthogonalLoop=1;jettySize=auto;html=1;exitX=0.5;exitY=1;exitDx=0;exitDy=0;entryX=1;entryY=0.5;entryDx=0;entryDy=0;startArrow=classic;startFill=1;endArrow=none;endFill=0;" edge="1" parent="1" source="M5_copgCiuHlVBaVW6s2-41" target="M5_copgCiuHlVBaVW6s2-23">
          <mxGeometry relative="1" as="geometry" />
        </mxCell>
        <mxCell id="M5_copgCiuHlVBaVW6s2-52" style="edgeStyle=orthogonalEdgeStyle;rounded=0;orthogonalLoop=1;jettySize=auto;html=1;exitX=0.5;exitY=0;exitDx=0;exitDy=0;entryX=0;entryY=0.5;entryDx=0;entryDy=0;startArrow=classic;startFill=1;endArrow=none;endFill=0;" edge="1" parent="1" source="M5_copgCiuHlVBaVW6s2-41" target="M5_copgCiuHlVBaVW6s2-27">
          <mxGeometry relative="1" as="geometry">
            <Array as="points">
              <mxPoint x="873" y="-20" />
              <mxPoint x="210" y="-20" />
              <mxPoint x="210" y="143" />
            </Array>
          </mxGeometry>
        </mxCell>
        <mxCell id="M5_copgCiuHlVBaVW6s2-54" value="" style="group" vertex="1" connectable="0" parent="1">
          <mxGeometry x="450" y="-370" width="300" height="150" as="geometry" />
        </mxCell>
        <mxCell id="M5_copgCiuHlVBaVW6s2-55" value="Регион 1" style="rounded=0;whiteSpace=wrap;html=1;fillColor=none;dashed=1;verticalAlign=top;align=right;spacing=2;spacingRight=2;" vertex="1" parent="M5_copgCiuHlVBaVW6s2-54">
          <mxGeometry width="300" height="150" as="geometry" />
        </mxCell>
        <mxCell id="M5_copgCiuHlVBaVW6s2-56" value="CDN" style="rounded=0;whiteSpace=wrap;html=1;" vertex="1" parent="M5_copgCiuHlVBaVW6s2-54">
          <mxGeometry x="170" y="43" width="100" height="50" as="geometry" />
        </mxCell>
        <mxCell id="M5_copgCiuHlVBaVW6s2-57" style="edgeStyle=orthogonalEdgeStyle;rounded=0;orthogonalLoop=1;jettySize=auto;html=1;entryX=0;entryY=0.5;entryDx=0;entryDy=0;" edge="1" parent="M5_copgCiuHlVBaVW6s2-54" source="M5_copgCiuHlVBaVW6s2-58" target="M5_copgCiuHlVBaVW6s2-56">
          <mxGeometry relative="1" as="geometry" />
        </mxCell>
        <mxCell id="M5_copgCiuHlVBaVW6s2-58" value="Пользователь 1" style="shape=umlActor;verticalLabelPosition=bottom;verticalAlign=top;html=1;outlineConnect=0;" vertex="1" parent="M5_copgCiuHlVBaVW6s2-54">
          <mxGeometry x="40" y="38" width="30" height="60" as="geometry" />
        </mxCell>
        <mxCell id="M5_copgCiuHlVBaVW6s2-64" value="" style="endArrow=classic;html=1;rounded=0;entryX=0.5;entryY=0;entryDx=0;entryDy=0;" edge="1" parent="M5_copgCiuHlVBaVW6s2-54" target="M5_copgCiuHlVBaVW6s2-37">
          <mxGeometry width="50" height="50" relative="1" as="geometry">
            <mxPoint y="80" as="sourcePoint" />
            <mxPoint x="-60" y="40" as="targetPoint" />
            <Array as="points">
              <mxPoint x="-50" y="80" />
              <mxPoint x="-50" y="370" />
              <mxPoint x="151" y="370" />
            </Array>
          </mxGeometry>
        </mxCell>
        <mxCell id="M5_copgCiuHlVBaVW6s2-59" value="" style="group" vertex="1" connectable="0" parent="1">
          <mxGeometry x="450" y="-200" width="300" height="150" as="geometry" />
        </mxCell>
        <mxCell id="M5_copgCiuHlVBaVW6s2-60" value="Регион 2" style="rounded=0;whiteSpace=wrap;html=1;fillColor=none;dashed=1;verticalAlign=top;align=right;spacing=2;spacingRight=2;" vertex="1" parent="M5_copgCiuHlVBaVW6s2-59">
          <mxGeometry width="300" height="150" as="geometry" />
        </mxCell>
        <mxCell id="M5_copgCiuHlVBaVW6s2-61" value="CDN" style="rounded=0;whiteSpace=wrap;html=1;" vertex="1" parent="M5_copgCiuHlVBaVW6s2-59">
          <mxGeometry x="170" y="43" width="100" height="50" as="geometry" />
        </mxCell>
        <mxCell id="M5_copgCiuHlVBaVW6s2-62" style="edgeStyle=orthogonalEdgeStyle;rounded=0;orthogonalLoop=1;jettySize=auto;html=1;entryX=0;entryY=0.5;entryDx=0;entryDy=0;" edge="1" parent="M5_copgCiuHlVBaVW6s2-59" source="M5_copgCiuHlVBaVW6s2-63" target="M5_copgCiuHlVBaVW6s2-61">
          <mxGeometry relative="1" as="geometry" />
        </mxCell>
        <mxCell id="M5_copgCiuHlVBaVW6s2-63" value="Пользователь 2" style="shape=umlActor;verticalLabelPosition=bottom;verticalAlign=top;html=1;outlineConnect=0;" vertex="1" parent="M5_copgCiuHlVBaVW6s2-59">
          <mxGeometry x="40" y="38" width="30" height="60" as="geometry" />
        </mxCell>
        <mxCell id="M5_copgCiuHlVBaVW6s2-65" value="" style="endArrow=classic;html=1;rounded=0;" edge="1" parent="M5_copgCiuHlVBaVW6s2-59">
          <mxGeometry width="50" height="50" relative="1" as="geometry">
            <mxPoint y="80" as="sourcePoint" />
            <mxPoint x="170" y="240" as="targetPoint" />
            <Array as="points">
              <mxPoint x="-30" y="80" />
              <mxPoint x="-30" y="160" />
              <mxPoint x="170" y="160" />
            </Array>
          </mxGeometry>
        </mxCell>
        <mxCell id="M5_copgCiuHlVBaVW6s2-66" value="" style="endArrow=classic;html=1;rounded=0;entryX=1;entryY=0.5;entryDx=0;entryDy=0;exitX=1;exitY=0.75;exitDx=0;exitDy=0;" edge="1" parent="1" source="M5_copgCiuHlVBaVW6s2-23" target="M5_copgCiuHlVBaVW6s2-60">
          <mxGeometry width="50" height="50" relative="1" as="geometry">
            <mxPoint x="830" y="160" as="sourcePoint" />
            <mxPoint x="850" y="110" as="targetPoint" />
            <Array as="points">
              <mxPoint x="980" y="156" />
              <mxPoint x="980" y="-125" />
            </Array>
          </mxGeometry>
        </mxCell>
      </root>
    </mxGraphModel>
  </diagram>
  <diagram id="Xlt_XWjsIBbU68_AVDkF" name="Задание 6">
    <mxGraphModel dx="954" dy="651" grid="1" gridSize="10" guides="1" tooltips="1" connect="1" arrows="1" fold="1" page="1" pageScale="1" pageWidth="827" pageHeight="1169" math="0" shadow="0">
      <root>
        <mxCell id="0" />
        <mxCell id="1" parent="0" />
      </root>
    </mxGraphModel>
  </diagram>
</mxfile>
